# xmcd
#
# Track frame offsets:
# 150
# 18113
# 37283
# 50693
# 59296
# 73671
# 93428
# 110261
# 136678
# 154156
# 173283
# 186921
# 204393
# 223888
#
# Disc length: 3187 seconds
#
#
# Revision: 0
# Processed by: cddbd v1.5.2PL0 Copyright (c) Steve Scherf et al.
# Submitted via: FreeRIP 2.96 
#
DISCID=c20c710e
DTITLE=Cazuza - condinome Cazuza - Codinome Cazuza
DYEAR=2007
DGENRE=mpb
TTITLE0=Malandragem/ Cassia Eller
TTITLE1=Mais Feliz/ Bebel Gilberto
TTITLE2=Solidão, que nada/ Kid Abelha
TTITLE3=Todo Amor Que Houver nesta Vida (ao vivo)/ Caetano Veloso
TTITLE4=Preciso dizer que Te-amo/ Marina Lima
TTITLE5=Porque a gente é assim?/ Ney Matogrosso
TTITLE6=Codinome Beija Flor/ Luiz Melodia
TTITLE7=Perto do Fogo (ao vivo) - Rita Lee
TTITLE8=Companhia/ Zizi Possi
TTITLE9=Ideologia (ao vivo)/ Paulo Ricardo
TTITLE10=Carente Profissional/ Marina Lima
TTITLE11=Conforto/ Cris Braun
TTITLE12=Poema/ Ney Matogrosso
TTITLE13=Brasil/ Kid Abelha
EXTD=emerson@betim.mg.gov.br
EXTT0=
EXTT1=
EXTT2=
EXTT3=
EXTT4=
EXTT5=
EXTT6=
EXTT7=
EXTT8=
EXTT9=
EXTT10=
EXTT11=
EXTT12=
EXTT13=
PLAYORDER=
